<svg width="36" height="35" viewBox="0 0 36 35" fill="none" xmlns="http://www.w3.org/2000/svg">
<path d="M28.2075 19.85V14.7099C28.2075 10.0988 25.0755 6.21431 20.8327 5.04611C20.4128 3.98828 19.3865 3.24292 18.1738 3.24292C16.9612 3.24292 15.9349 3.98828 15.5149 5.04611C11.2721 6.21574 8.14019 10.0988 8.14019 14.7099L8.14019 19.85L5.69342 22.2968C5.42394 22.5648 5.27344 22.9289 5.27344 23.3102L5.27344 26.1769C5.27344 26.9696 5.91416 27.6103 6.70681 27.6103L29.6408 27.6103C30.4335 27.6103 31.0742 26.9696 31.0742 26.1769V23.3102C31.0742 22.9289 30.9237 22.5648 30.6542 22.2968L28.2075 19.85ZM28.2075 24.7436L8.14019 24.7436V23.9036L10.587 21.4568C10.8564 21.1888 11.0069 20.8247 11.0069 20.4434L11.0069 14.7099C11.0069 10.7581 14.222 7.54305 18.1738 7.54305C22.1256 7.54305 25.3407 10.7581 25.3407 14.7099V20.4434C25.3407 20.8247 25.4912 21.1888 25.7607 21.4568L28.2075 23.9036V24.7436ZM18.1738 31.9104C20.053 31.9104 21.624 30.715 22.2131 29.0437L14.1346 29.0437C14.7237 30.715 16.2947 31.9104 18.1738 31.9104Z" fill="#DC3D5A"/>
</svg>
