<svg width="29" height="29" viewBox="0 0 29 29" fill="none" xmlns="http://www.w3.org/2000/svg">
<path d="M14.5281 12.3999C15.8006 12.3999 16.8321 13.4314 16.8321 14.7039C16.8321 15.9763 15.8006 17.0079 14.5281 17.0079C13.2556 17.0079 12.2241 15.9763 12.2241 14.7039C12.2241 13.4314 13.2556 12.3999 14.5281 12.3999Z" stroke="#686B6E" stroke-width="1.728" stroke-linecap="round" stroke-linejoin="round"/>
<path d="M8.65446 8.6523C7.57568 8.02947 6.19625 8.39909 5.57341 9.47787L5.52533 9.56116C4.90225 10.6403 5.27201 12.0203 6.3512 12.6434L6.6309 12.8049C7.29056 13.1857 7.6161 13.9422 7.6161 14.7039C7.6161 15.4656 7.29056 16.222 6.6309 16.6029L6.3512 16.7644C5.27201 17.3874 4.90225 18.7674 5.52533 19.8466L5.57341 19.9299C6.19625 21.0087 7.57568 21.3783 8.65446 20.7554L8.93566 20.5931C9.59527 20.2123 10.4077 20.3061 11.0667 20.688C11.7254 21.0699 12.2241 21.7316 12.2241 22.493V22.8171C12.2241 24.0624 13.2336 25.0719 14.4789 25.0719H14.5773C15.8226 25.0719 16.8321 24.0624 16.8321 22.8171V22.493C16.8321 21.7316 17.3308 21.0699 17.9895 20.688C18.6485 20.3061 19.4609 20.2123 20.1205 20.5931L20.4017 20.7555C21.4805 21.3783 22.86 21.0087 23.4828 19.9299L23.5309 19.8466C24.154 18.7674 23.7842 17.3875 22.705 16.7644L22.4253 16.6029C21.7656 16.222 21.4401 15.4656 21.4401 14.7039C21.4401 13.9422 21.7656 13.1857 22.4253 12.8049L22.705 12.6434C23.7842 12.0203 24.154 10.6403 23.5309 9.56113L23.4828 9.47787C22.86 8.39908 21.4805 8.02946 20.4017 8.6523L20.1205 8.81465C19.4609 9.19548 18.6485 9.10169 17.9895 8.71971C17.3308 8.33787 16.8321 7.67612 16.8321 6.91473V6.59066C16.8321 5.34538 15.8226 4.33588 14.5773 4.33588L14.4789 4.33588C13.2336 4.33588 12.2241 5.34537 12.2241 6.59066V6.91473C12.2241 7.67612 11.7254 8.33787 11.0667 8.71971C10.4077 9.10169 9.59527 9.19548 8.93566 8.81465L8.65446 8.6523Z" stroke="#686B6E" stroke-width="1.728" stroke-linecap="round" stroke-linejoin="round"/>
</svg>
