<svg width="36" height="36" viewBox="0 0 36 36" fill="none" xmlns="http://www.w3.org/2000/svg">
<path d="M8.37805 3.58401H27.386C28.97 3.58401 30.266 4.88001 30.266 6.46402V9.63202C30.266 10.784 29.546 12.224 28.826 12.944L22.634 18.416C21.77 19.136 21.194 20.576 21.194 21.728V27.92C21.194 28.784 20.618 29.936 19.898 30.368L17.882 31.664C16.01 32.816 13.418 31.52 13.418 29.216V21.584C13.418 20.576 12.842 19.28 12.266 18.56L6.79405 12.8C6.07405 12.08 5.49805 10.784 5.49805 9.92002V6.60801C5.49805 4.88001 6.79405 3.58401 8.37805 3.58401Z" stroke="#0E91A5" stroke-width="1.62" stroke-miterlimit="10" stroke-linecap="round" stroke-linejoin="round"/>
<path d="M16.3414 3.58401L9.24219 14.96" stroke="#0E91A5" stroke-width="1.62" stroke-miterlimit="10" stroke-linecap="round" stroke-linejoin="round"/>
</svg>
