<svg width="22" height="24" viewBox="0 0 22 24" fill="none" xmlns="http://www.w3.org/2000/svg">
<rect width="22" height="24" fill="#1E1E1E"/>
<g id="Admin - forum" clip-path="url(#clip0_0_1)">
<rect width="1440" height="1875" transform="translate(-369 -1458)" fill="white"/>
<g id="Frame 37154">
<g id="Frame 37151">
<g id="Button" filter="url(#filter0_d_0_1)">
<g clip-path="url(#clip1_0_1)">
<rect x="-32" y="-20" width="254" height="64" rx="8" fill="#041B29"/>
<g id="_Button base">
<g id="Group">
<path id="Vector" d="M0.409302 0.212036C0.16803 0.393372 0.0002441 0.672607 0 0.994751V22.9998C0 23.3265 0.167908 23.6036 0.411133 23.7863L12.7491 12L0.409302 0.212036Z" fill="#29B6F6"/>
<path id="Vector_2" d="M0.409302 0.212036C0.16803 0.393372 0.0002441 0.672607 0 0.994751V22.9998C0 23.3265 0.167908 23.6036 0.411133 23.7863L12.7491 12L0.409302 0.212036Z" fill="url(#paint0_linear_0_1)"/>
<path id="Vector_3" d="M16.5504 8.36955C11.4935 5.56065 5.21167 2.11955 1.46423 0.114727C1.09869 -0.0802194 0.700317 -0.00606167 0.410156 0.212078L12.7499 12L16.5504 8.36955Z" fill="#00E676"/>
<path id="Vector_4" d="M16.5504 8.36955C11.4935 5.56065 5.21167 2.11955 1.46423 0.114727C1.09869 -0.0802194 0.700317 -0.00606167 0.410156 0.212078L12.7499 12L16.5504 8.36955Z" fill="url(#paint1_linear_0_1)"/>
<path id="Vector_5" d="M0.410156 23.7863C0.577271 23.9118 0.774475 24 0.999023 24C1.15723 24 1.31299 23.9595 1.46191 23.8798C5.20886 21.8755 11.4888 18.4355 16.545 15.6271L12.7481 12L0.410156 23.7863Z" fill="#F44336"/>
<path id="Vector_6" d="M0.410156 23.7863C0.577271 23.9118 0.774475 24 0.999023 24C1.15723 24 1.31299 23.9595 1.46191 23.8798C5.20886 21.8755 11.4888 18.4355 16.545 15.6271L12.7481 12L0.410156 23.7863Z" fill="url(#paint2_linear_0_1)"/>
<path id="Vector_7" d="M21.4921 11.1353C20.1462 10.3732 18.4304 9.41376 16.5504 8.36951L12.75 12L16.5469 15.6271C18.4283 14.5822 20.1453 13.6221 21.4921 12.8597C21.8061 12.682 22.0009 12.3518 22.0009 11.9973C22.0009 11.6427 21.8061 11.3125 21.4921 11.1353Z" fill="#FFEA00"/>
<path id="Vector_8" d="M21.4921 11.1353C20.1462 10.3732 18.4304 9.41376 16.5504 8.36951L12.75 12L16.5469 15.6271C18.4283 14.5822 20.1453 13.6221 21.4921 12.8597C21.8061 12.682 22.0009 12.3518 22.0009 11.9973C22.0009 11.6427 21.8061 11.3125 21.4921 11.1353Z" fill="url(#paint3_linear_0_1)"/>
<path id="Vector_9" opacity="0.2" d="M1.39215 0.364703C6.57129 3.11483 16.5665 8.57357 21.5699 11.3853C21.7526 11.4876 21.8887 11.6441 21.9766 11.8237C21.924 11.5383 21.7528 11.2829 21.4914 11.1353C16.5251 8.32357 6.60419 2.86483 1.46356 0.114703C0.848816 -0.213177 0.137207 0.207355 0.0234375 0.82735C0.258179 0.354205 0.860901 0.0834534 1.39215 0.364703Z" fill="white"/>
<path id="Vector_10" opacity="0.1" d="M1.39215 23.6353C6.57129 20.8852 16.5665 15.4265 21.5699 12.6147C21.7526 12.5124 21.8887 12.356 21.9766 12.1763C21.924 12.4617 21.7528 12.7172 21.4914 12.8647C16.5251 15.6765 6.60419 21.1352 1.46356 23.8853C0.848816 24.2132 0.137207 23.7927 0.0234375 23.1727C0.258179 23.6458 0.860901 23.9166 1.39215 23.6353Z" fill="black"/>
<path id="Vector_11" d="M21.4912 11.1342C20.1453 10.3721 5.21082 2.11776 1.46338 0.112783C1.09784 -0.082179 0.699463 -0.00801544 0.409302 0.210142C0.16803 0.391492 0.0002441 0.67075 0 0.992919V22.9997C0 23.3265 0.167908 23.6036 0.411133 23.7862C0.578247 23.9118 0.775452 24 1 24C1.1582 24 1.31396 23.9595 1.46289 23.8798C5.20984 21.8753 20.1444 13.6213 21.4912 12.8589C21.8052 12.6811 22 12.3509 22 11.9963C22 11.6417 21.8052 11.3115 21.4912 11.1342Z" fill="url(#paint4_linear_0_1)"/>
</g>
</g>
</g>
<rect x="-31" y="-19" width="252" height="62" rx="7" stroke="url(#paint5_linear_0_1)" stroke-width="2"/>
</g>
</g>
</g>
</g>
<defs>
<filter id="filter0_d_0_1" x="-44" y="-24" width="278" height="88" filterUnits="userSpaceOnUse" color-interpolation-filters="sRGB">
<feFlood flood-opacity="0" result="BackgroundImageFix"/>
<feColorMatrix in="SourceAlpha" type="matrix" values="0 0 0 0 0 0 0 0 0 0 0 0 0 0 0 0 0 0 127 0" result="hardAlpha"/>
<feMorphology radius="4" operator="erode" in="SourceAlpha" result="effect1_dropShadow_0_1"/>
<feOffset dy="8"/>
<feGaussianBlur stdDeviation="8"/>
<feComposite in2="hardAlpha" operator="out"/>
<feColorMatrix type="matrix" values="0 0 0 0 0 0 0 0 0 0 0 0 0 0 0 0 0 0 0.18 0"/>
<feBlend mode="normal" in2="BackgroundImageFix" result="effect1_dropShadow_0_1"/>
<feBlend mode="normal" in="SourceGraphic" in2="effect1_dropShadow_0_1" result="shape"/>
</filter>
<linearGradient id="paint0_linear_0_1" x1="6.37454" y1="2.09286" x2="6.37454" y2="18.0032" gradientUnits="userSpaceOnUse">
<stop stop-color="#00B8D4" stop-opacity="0"/>
<stop offset="1" stop-color="white" stop-opacity="0.3"/>
</linearGradient>
<linearGradient id="paint1_linear_0_1" x1="-0.632307" y1="2.44765" x2="15.7496" y2="10.0867" gradientUnits="userSpaceOnUse">
<stop stop-color="white" stop-opacity="0.2"/>
<stop offset="1" stop-color="white" stop-opacity="0"/>
</linearGradient>
<linearGradient id="paint2_linear_0_1" x1="6.48366" y1="17.7128" x2="10.4715" y2="21.7006" gradientUnits="userSpaceOnUse">
<stop stop-opacity="0.1"/>
<stop offset="1" stop-opacity="0"/>
</linearGradient>
<linearGradient id="paint3_linear_0_1" x1="15.1648" y1="9.58518" x2="19.9918" y2="14.4122" gradientUnits="userSpaceOnUse">
<stop stop-opacity="0.05"/>
<stop offset="1" stop-opacity="0"/>
</linearGradient>
<linearGradient id="paint4_linear_0_1" x1="-4.11248" y1="9.60865" x2="18.3332" y2="20.0753" gradientUnits="userSpaceOnUse">
<stop stop-color="white" stop-opacity="0.2"/>
<stop offset="1" stop-color="white" stop-opacity="0"/>
</linearGradient>
<linearGradient id="paint5_linear_0_1" x1="95" y1="-20" x2="95" y2="44" gradientUnits="userSpaceOnUse">
<stop stop-color="#D7FAFF"/>
<stop offset="1" stop-color="#0E91A5"/>
</linearGradient>
<clipPath id="clip0_0_1">
<rect width="1440" height="1875" fill="white" transform="translate(-369 -1458)"/>
</clipPath>
<clipPath id="clip1_0_1">
<rect x="-32" y="-20" width="254" height="64" rx="8" fill="white"/>
</clipPath>
</defs>
</svg>
