<svg width="29" height="29" viewBox="0 0 29 29" fill="none" xmlns="http://www.w3.org/2000/svg">
<path d="M17 6.09995C17 4.77995 15.92 3.69995 14.6 3.69995C13.28 3.69995 12.2 4.77995 12.2 6.09995C12.2 7.41995 13.28 8.49995 14.6 8.49995C15.92 8.49995 17 7.41995 17 6.09995Z" stroke="white" stroke-width="1.8"/>
<path d="M17 22.9C17 21.58 15.92 20.5 14.6 20.5C13.28 20.5 12.2 21.58 12.2 22.9C12.2 24.22 13.28 25.3 14.6 25.3C15.92 25.3 17 24.22 17 22.9Z" stroke="white" stroke-width="1.8"/>
<path d="M17 14.5C17 13.18 15.92 12.1 14.6 12.1C13.28 12.1 12.2 13.18 12.2 14.5C12.2 15.82 13.28 16.9 14.6 16.9C15.92 16.9 17 15.82 17 14.5Z" stroke="white" stroke-width="1.8"/>
</svg>
