<svg width="20" height="21" viewBox="0 0 20 21" fill="none" xmlns="http://www.w3.org/2000/svg">
<path d="M10.4153 3.22803C7.76729 3.22803 5.61529 5.38003 5.61529 8.02803V10.34C5.61529 10.828 5.40729 11.572 5.15929 11.988L4.23929 13.516C3.67129 14.46 4.06329 15.508 5.10329 15.86C8.55129 17.012 12.2713 17.012 15.7193 15.86C16.6873 15.54 17.1113 14.396 16.5833 13.516L15.6633 11.988C15.4233 11.572 15.2153 10.828 15.2153 10.34V8.02803C15.2153 5.38803 13.0553 3.22803 10.4153 3.22803Z" stroke="white" stroke-width="1.8" stroke-miterlimit="10" stroke-linecap="round"/>
<path d="M11.8955 3.46003C11.6475 3.38803 11.3915 3.33203 11.1275 3.30003C10.3595 3.20403 9.62355 3.26003 8.93555 3.46003C9.16755 2.86803 9.74355 2.45203 10.4155 2.45203C11.0875 2.45203 11.6635 2.86803 11.8955 3.46003Z" stroke="white" stroke-width="1.8" stroke-miterlimit="10" stroke-linecap="round" stroke-linejoin="round"/>
<path d="M12.8156 16.148C12.8156 17.468 11.7356 18.548 10.4156 18.548C9.75962 18.548 9.15162 18.276 8.71962 17.844C8.28762 17.412 8.01562 16.804 8.01562 16.148" stroke="white" stroke-width="1.8" stroke-miterlimit="10"/>
</svg>
