<svg width="48" height="47" viewBox="0 0 48 47" fill="none" xmlns="http://www.w3.org/2000/svg">
<g filter="url(#filter0_dd_2445_1644)">
<path d="M24.1673 20.464H27.533C28.1441 20.464 28.7301 20.2212 29.1622 19.7891L32.1325 16.8188C32.5646 16.3867 32.8073 15.8007 32.8073 15.1896V11.824V8.45831C32.8073 7.84725 32.5646 7.26122 32.1325 6.82913L29.1622 3.85879C28.7301 3.4267 28.1441 3.18396 27.533 3.18396H24.1673H20.8017C20.1906 3.18396 19.6046 3.4267 19.1725 3.85879L16.2022 6.82913C15.7701 7.26122 15.5273 7.84725 15.5273 8.45831V11.824V15.1896C15.5273 15.8007 15.7701 16.3867 16.2022 16.8188L19.1725 19.7891C19.6046 20.2212 20.1906 20.464 20.8017 20.464H24.1673Z" stroke="#82DBF7" stroke-width="1.728" stroke-linecap="round"/>
</g>
<defs>
<filter id="filter0_dd_2445_1644" x="-1.17556" y="-1.99998" width="50.6871" height="50.688" filterUnits="userSpaceOnUse" color-interpolation-filters="sRGB">
<feFlood flood-opacity="0" result="BackgroundImageFix"/>
<feColorMatrix in="SourceAlpha" type="matrix" values="0 0 0 0 0 0 0 0 0 0 0 0 0 0 0 0 0 0 127 0" result="hardAlpha"/>
<feMorphology radius="4.608" operator="erode" in="SourceAlpha" result="effect1_dropShadow_2445_1644"/>
<feOffset dy="4.608"/>
<feGaussianBlur stdDeviation="3.456"/>
<feColorMatrix type="matrix" values="0 0 0 0 0.509804 0 0 0 0 0.858824 0 0 0 0 0.968627 0 0 0 0.16 0"/>
<feBlend mode="normal" in2="BackgroundImageFix" result="effect1_dropShadow_2445_1644"/>
<feColorMatrix in="SourceAlpha" type="matrix" values="0 0 0 0 0 0 0 0 0 0 0 0 0 0 0 0 0 0 127 0" result="hardAlpha"/>
<feMorphology radius="3.456" operator="erode" in="SourceAlpha" result="effect2_dropShadow_2445_1644"/>
<feOffset dy="11.52"/>
<feGaussianBlur stdDeviation="8.64"/>
<feColorMatrix type="matrix" values="0 0 0 0 0.509804 0 0 0 0 0.858824 0 0 0 0 0.968627 0 0 0 0.16 0"/>
<feBlend mode="normal" in2="effect1_dropShadow_2445_1644" result="effect2_dropShadow_2445_1644"/>
<feBlend mode="normal" in="SourceGraphic" in2="effect2_dropShadow_2445_1644" result="shape"/>
</filter>
</defs>
</svg>
