<svg width="26" height="26" viewBox="0 0 26 26" fill="none" xmlns="http://www.w3.org/2000/svg">
<path d="M14.5457 0.15719C15.4651 0.153662 16.3845 0.162902 17.3037 0.184909L17.5481 0.193728C17.8303 0.203808 18.1088 0.216407 18.4452 0.231526C19.7858 0.294523 20.7005 0.506192 21.503 0.817396C22.3346 1.13742 23.0351 1.57084 23.7357 2.27136C24.3762 2.90083 24.8719 3.66226 25.1884 4.50271C25.4996 5.30529 25.7112 6.22126 25.7742 7.56183C25.7894 7.89697 25.8019 8.17668 25.812 8.4589L25.8196 8.70333C25.842 9.62207 25.8516 10.5411 25.8486 11.4601L25.8498 12.4V14.0505C25.8529 14.9699 25.8433 15.8893 25.8208 16.8085L25.8133 17.0529C25.8032 17.3351 25.7906 17.6136 25.7755 17.95C25.7125 19.2906 25.4983 20.2053 25.1884 21.0079C24.8729 21.8492 24.3771 22.6112 23.7357 23.2405C23.1056 23.8809 22.3438 24.3766 21.503 24.6932C20.7005 25.0044 19.7858 25.216 18.4452 25.279C18.1088 25.2942 17.8303 25.3068 17.5481 25.3168L17.3037 25.3244C16.3845 25.3468 15.4651 25.3565 14.5457 25.3534L13.6058 25.3546H11.9565C11.0371 25.3577 10.1177 25.3481 9.19852 25.3257L8.95409 25.3181C8.655 25.3073 8.35597 25.2947 8.05702 25.2803C6.71645 25.2173 5.80173 25.0031 4.99789 24.6932C4.15712 24.3774 3.39556 23.8816 2.76655 23.2405C2.1253 22.6109 1.62911 21.8489 1.31258 21.0079C1.00138 20.2053 0.78971 19.2906 0.726714 17.95C0.712682 17.651 0.700082 17.352 0.688916 17.0529L0.682616 16.8085C0.659387 15.8894 0.648887 14.9699 0.651118 14.0505V11.4601C0.647601 10.5411 0.656842 9.62207 0.678836 8.70333L0.687656 8.4589C0.697735 8.17668 0.710335 7.89697 0.725454 7.56183C0.788451 6.22 1.00012 5.30655 1.31132 4.50271C1.62804 3.66185 2.1252 2.90063 2.76781 2.27262C3.39638 1.631 4.15747 1.13436 4.99789 0.817396C5.80173 0.506192 6.71519 0.294523 8.05702 0.231526L8.95409 0.193728L9.19852 0.187429C10.1172 0.164211 11.0362 0.153711 11.9553 0.15593L14.5457 0.15719ZM13.2505 6.45687C12.4158 6.44506 11.5871 6.59927 10.8125 6.91053C10.0379 7.22179 9.33289 7.68389 8.73845 8.26998C8.14401 8.85607 7.67198 9.55447 7.3498 10.3246C7.02762 11.0947 6.86171 11.9211 6.86171 12.7559C6.86171 13.5907 7.02762 14.4172 7.3498 15.1873C7.67198 15.9574 8.14401 16.6558 8.73845 17.2418C9.33289 17.8279 10.0379 18.29 10.8125 18.6013C11.5871 18.9126 12.4158 19.0668 13.2505 19.055C14.9212 19.055 16.5236 18.3912 17.705 17.2098C18.8864 16.0284 19.5501 14.4261 19.5501 12.7553C19.5501 11.0845 18.8864 9.48216 17.705 8.30074C16.5236 7.11932 14.9212 6.45687 13.2505 6.45687ZM13.2505 8.97674C13.7526 8.96749 14.2515 9.05838 14.718 9.2441C15.1846 9.42983 15.6095 9.70667 15.9679 10.0584C16.3263 10.4102 16.6109 10.8299 16.8053 11.2929C16.9997 11.756 17.0998 12.2531 17.0999 12.7553C17.1 13.2575 17 13.7546 16.8058 14.2177C16.6116 14.6808 16.327 15.1006 15.9688 15.4525C15.6105 15.8044 15.1857 16.0814 14.7192 16.2672C14.2527 16.4531 13.7538 16.5442 13.2517 16.5351C12.2493 16.5351 11.2879 16.1369 10.579 15.428C9.87015 14.7192 9.47193 13.7578 9.47193 12.7553C9.47193 11.7528 9.87015 10.7914 10.579 10.0826C11.2879 9.37371 12.2493 8.97548 13.2517 8.97548L13.2505 8.97674ZM19.8651 4.56696C19.4587 4.58323 19.0743 4.75614 18.7924 5.04948C18.5106 5.34282 18.3532 5.73383 18.3532 6.14062C18.3532 6.54741 18.5106 6.93842 18.7924 7.23176C19.0743 7.5251 19.4587 7.69801 19.8651 7.71428C20.2828 7.71428 20.6834 7.54835 20.9788 7.253C21.2741 6.95764 21.4401 6.55706 21.4401 6.13936C21.4401 5.72167 21.2741 5.32108 20.9788 5.02573C20.6834 4.73037 20.2828 4.56444 19.8651 4.56444V4.56696Z" fill="#FFF2E0"/>
</svg>
