<svg width="108" height="30" viewBox="0 0 108 30" fill="none" xmlns="http://www.w3.org/2000/svg">
<path d="M21.3024 11.0378L21.2877 11.0203C21.2866 11.0193 21.2856 11.018 21.285 11.0165L12.1279 0.0540771L3.39165 11.0162C3.39064 11.0175 3.3901 11.0192 3.38907 11.02L3.37465 11.0375C2.03894 12.7232 1.21216 14.9208 1.02575 17.2811C0.839347 19.6413 1.304 22.0288 2.34586 24.0639C3.38772 26.099 4.94698 27.6651 6.77578 28.5129C8.60458 29.3608 10.598 29.442 12.439 28.7435C12.594 28.6851 12.7608 28.6851 12.918 28.7435C14.7857 29.4418 16.7759 29.3605 18.572 28.5125C20.3681 27.6645 21.8671 26.0986 22.8308 24.0636C23.7945 22.0286 24.1675 19.6413 23.8906 17.2812C23.6137 14.9211 22.7027 12.7235 21.3024 11.0378ZM6.71212 18.2666C6.6696 18.32 6.63627 18.3834 6.61405 18.4531C6.59182 18.5227 6.58113 18.5974 6.58259 18.6729C6.63565 20.6077 7.11823 22.5004 7.97842 24.1476C7.99795 24.1849 8.00749 24.2287 8.00566 24.2724C8.00383 24.3161 7.99073 24.3577 7.96823 24.3913C7.94573 24.4248 7.91498 24.4485 7.88039 24.459C7.8458 24.4694 7.80912 24.4662 7.77563 24.4496C7.14658 24.1286 6.57175 23.6619 6.0833 23.0758C5.08236 21.8773 4.50139 20.2522 4.46797 18.5575C4.43455 16.8628 4.95143 15.2369 5.90508 14.037L12.2436 6.08425L18.8871 14.037C19.887 15.2367 20.4665 16.8627 20.4981 18.5575C20.5298 20.2522 20.0111 21.8773 19.0561 23.0758C18.5901 23.6619 18.0333 24.1286 17.4167 24.4496C17.3837 24.4662 17.3472 24.4694 17.3122 24.459C17.2772 24.4485 17.2456 24.4247 17.2217 24.3913C17.198 24.3577 17.1832 24.3161 17.1797 24.2723C17.1762 24.2285 17.184 24.1848 17.2021 24.1474C17.9993 22.5004 18.4094 20.6077 18.3885 18.6729C18.387 18.5974 18.3733 18.5227 18.3483 18.4529C18.3233 18.3831 18.2874 18.3199 18.2427 18.2665L15.0959 14.2764C15.0647 14.2451 15.0259 14.228 14.9861 14.228C14.9463 14.228 14.9081 14.2451 14.8782 14.2764C14.8481 14.3075 14.8284 14.351 14.8222 14.3989C14.8159 14.4469 14.8237 14.4963 14.8441 14.5388C16.0873 17.1827 15.1348 20.9803 13.4651 23.0758L13.4563 23.0868C13.2258 23.3729 12.9103 23.5332 12.5783 23.5331C12.2463 23.533 11.9247 23.3723 11.6834 23.0861L11.6749 23.0758C9.92407 20.9803 8.82635 17.1831 9.96821 14.5393C9.987 14.4969 9.99289 14.4475 9.98483 14.3995C9.97678 14.3515 9.9553 14.3081 9.92415 14.2769C9.89299 14.2456 9.85414 14.2285 9.81434 14.2285C9.77454 14.2285 9.73633 14.2456 9.70638 14.2769L6.71212 18.2666Z" fill="white"/>
<path d="M43.2787 9.20955L46.2398 9.20955L43.4097 21.7838L40.0257 21.7838L38.4484 14.3474L37.1382 21.7838L33.7542 21.7838L30.4415 9.20955L33.5864 9.20955L35.356 18.0431L36.7682 9.20955L40.097 9.20955L41.8482 18.0431L43.2787 9.20955Z" fill="white"/>
<path d="M54.0961 17.7952C54.5393 17.2544 54.7515 16.4882 54.7324 15.4967C54.7134 14.5052 54.472 13.7465 54.0083 13.2207C53.5442 12.6799 53.0179 12.4095 52.4294 12.4095C51.8409 12.4095 51.325 12.6799 50.8817 13.2207C50.4384 13.7615 50.2263 14.5277 50.2453 15.5192C50.2644 16.5107 50.5059 17.2769 50.9699 17.8177C51.4337 18.3435 51.9598 18.6064 52.5484 18.6064C53.1369 18.6064 53.6528 18.336 54.0961 17.7952ZM48.4949 20.1388C47.5645 18.9369 47.0813 17.3971 47.0452 15.5192C47.0092 13.6413 47.4333 12.1015 48.3175 10.8996C49.2015 9.68278 50.2933 9.07435 51.593 9.07435C52.9049 9.07435 53.9217 9.66775 54.6433 10.8546L54.6118 9.20955L57.7567 9.20955L57.998 21.7838L54.8531 21.7838L54.8181 19.9585C54.0833 21.2805 53.0783 21.9416 51.8032 21.9416C50.528 21.9416 49.4252 21.3406 48.4949 20.1388Z" fill="white"/>
<path d="M59.2141 9.20955L62.5613 9.20955L65.0765 18.5614L67.2327 9.20955L70.58 9.20955L67.1798 21.7838L63.0969 21.7838L59.2141 9.20955Z" fill="white"/>
<path d="M76.6356 21.9415C75.1398 21.9415 73.9025 21.3557 72.9236 20.1839C71.9445 18.997 71.4362 17.4271 71.3987 15.4741C71.3612 13.5212 71.8034 11.9663 72.7253 10.8095C73.6594 9.65273 74.8806 9.07434 76.3887 9.07434C77.8968 9.07434 79.1583 9.64522 80.1734 10.787C81.1885 11.9287 81.7154 13.5136 81.7544 15.5417C81.7627 15.9774 81.746 16.383 81.7042 16.7586L74.6418 16.7586C74.7138 17.3145 74.9249 17.7727 75.2751 18.1332C75.6251 18.4787 75.9962 18.6515 76.3886 18.6515C76.7932 18.6515 77.0927 18.6064 77.2872 18.5163C77.4813 18.4111 77.6205 18.3135 77.7045 18.2234C77.8006 18.1182 77.9201 17.9529 78.0629 17.7276L81.4653 17.7276C81.1952 18.9895 80.6263 20.0111 79.7585 20.7923C78.8904 21.5585 77.8495 21.9415 76.6356 21.9415ZM78.4578 14.3474C78.3975 13.7615 78.18 13.2883 77.8052 12.9277C77.4302 12.5522 76.9913 12.3644 76.4886 12.3644C75.9859 12.3644 75.5665 12.5522 75.2304 12.9277C74.894 13.2883 74.6885 13.7615 74.614 14.3474L78.4578 14.3474Z" fill="white"/>
<path d="M86.7978 9.20955L86.8428 11.5531C87.5467 9.90061 88.5118 9.07434 89.7379 9.07434L89.8131 12.9953L89.0407 12.9953C88.3173 12.9953 87.7757 13.2057 87.4159 13.6263C87.0684 14.047 86.9048 14.7831 86.925 15.8347L87.0392 21.7838L83.8942 21.7838L83.6529 9.20955L86.7978 9.20955Z" fill="white"/>
<path d="M94.2895 7.78988C93.9423 8.22554 93.5112 8.44338 92.9963 8.44338C92.4813 8.44338 92.0418 8.22554 91.6779 7.78988C91.314 7.35421 91.126 6.82089 91.1139 6.18993C91.1015 5.54394 91.2689 5.00311 91.6161 4.56744C91.9633 4.13177 92.3944 3.91394 92.9093 3.91394C93.4243 3.91394 93.8637 4.13177 94.2277 4.56744C94.5916 5.00311 94.7798 5.54394 94.7922 6.18993C94.8043 6.82089 94.6367 7.35421 94.2895 7.78988ZM91.689 21.7838L91.4477 9.20955L94.5926 9.20955L94.834 21.7838L91.689 21.7838Z" fill="white"/>
<path d="M103.683 17.8403C104.09 17.2994 104.283 16.5182 104.264 15.4967C104.244 14.4751 104.015 13.7014 103.576 13.1756C103.136 12.6348 102.622 12.3644 102.033 12.3644C101.445 12.3644 100.941 12.6348 100.523 13.1756C100.116 13.7014 99.9222 14.4751 99.9418 15.4967C99.9614 16.5182 100.191 17.2994 100.63 17.8403C101.082 18.3811 101.602 18.6515 102.191 18.6515C102.779 18.6515 103.277 18.3811 103.683 17.8403ZM98.3761 20.1613C97.3234 18.9745 96.7785 17.4121 96.7413 15.4741C96.7041 13.5362 97.1893 11.9888 98.197 10.832C99.2045 9.66024 100.468 9.07434 101.989 9.07434C103.509 9.07434 104.789 9.66024 105.829 10.832C106.882 11.9888 107.426 13.5362 107.463 15.4741C107.501 17.4121 107.022 18.9745 106.027 20.1613C105.032 21.3481 103.774 21.9415 102.254 21.9415C100.734 21.9415 99.4411 21.3481 98.3761 20.1613Z" fill="white"/>
</svg>
