<svg width="24" height="24" viewBox="0 0 24 24" fill="none" xmlns="http://www.w3.org/2000/svg">
<rect width="24" height="24" fill="#1E1E1E"/>
<g id="Admin - forum" clip-path="url(#clip0_0_1)">
<rect width="1440" height="1875" transform="translate(-897 -1458)" fill="white"/>
<g id="Frame 37154">
<g id="Frame 37151">
<g id="Button" filter="url(#filter0_d_0_1)">
<path d="M-32 -12C-32 -16.4183 -28.4183 -20 -24 -20H198C202.418 -20 206 -16.4183 206 -12V36C206 40.4183 202.418 44 198 44H-24C-28.4183 44 -32 40.4183 -32 36V-12Z" fill="#041B29" shape-rendering="crispEdges"/>
<path d="M-24 -19H198C201.866 -19 205 -15.866 205 -12V36C205 39.866 201.866 43 198 43H-24C-27.866 43 -31 39.866 -31 36V-12C-31 -15.866 -27.866 -19 -24 -19Z" stroke="url(#paint0_linear_0_1)" stroke-width="2" shape-rendering="crispEdges"/>
<g id="_Button base">
<g id="widnows-store 1" clip-path="url(#clip1_0_1)">
<path id="Vector" d="M17.5991 7.59998H19.4391C19.8091 7.60027 20.1675 7.72878 20.4534 7.96361C20.7393 8.19845 20.935 8.5251 21.0071 8.88798L23.5671 21.688C23.6132 21.9199 23.6073 22.1592 23.5499 22.3885C23.4925 22.6179 23.3849 22.8317 23.235 23.0146C23.0851 23.1974 22.8964 23.3447 22.6827 23.446C22.469 23.5472 22.2356 23.5998 21.9991 23.6H1.99911C1.76264 23.5998 1.52916 23.5472 1.31546 23.446C1.10176 23.3447 0.913157 23.1974 0.763213 23.0146C0.613268 22.8317 0.505715 22.6179 0.448289 22.3885C0.390864 22.1592 0.384996 21.9199 0.431106 21.688L2.99111 8.88798C3.06325 8.5251 3.25892 8.19845 3.54481 7.96361C3.8307 7.72878 4.18913 7.60027 4.55911 7.59998H17.5991Z" fill="#DCF0FF"/>
<path id="Vector_2" d="M17.6004 6.00002V9.20002C17.5998 9.412 17.5153 9.61512 17.3654 9.76501C17.2155 9.9149 17.0124 9.99939 16.8004 10C16.5887 9.99845 16.3861 9.91366 16.2364 9.76398C16.0868 9.61428 16.002 9.41171 16.0004 9.20002V6.14402C16.0143 5.11241 15.6386 4.1135 14.9483 3.34679C14.258 2.58008 13.3038 2.102 12.2764 2.00802C11.7293 1.9713 11.1805 2.04724 10.6639 2.23115C10.1473 2.41506 9.67395 2.70302 9.27314 3.07721C8.87232 3.45141 8.55256 3.90388 8.33364 4.40662C8.11472 4.90936 8.00129 5.45168 8.00039 6.00002V9.20002C7.99976 9.412 7.91527 9.61512 7.76538 9.76501C7.61549 9.9149 7.41237 9.99939 7.20039 10C6.9887 9.99845 6.78613 9.91366 6.63644 9.76398C6.48675 9.61428 6.40196 9.41171 6.40039 9.20002V6.00002C6.40039 4.51481 6.99039 3.09043 8.04059 2.04023C9.0908 0.990023 10.5152 0.400024 12.0004 0.400024C13.4856 0.400024 14.91 0.990023 15.9602 2.04023C17.0104 3.09043 17.6004 4.51481 17.6004 6.00002Z" fill="#2A404C"/>
<path id="Vector_3" d="M10.0008 12H7.60078C7.15895 12 6.80078 12.3582 6.80078 12.8V15.2C6.80078 15.6418 7.15895 16 7.60078 16H10.0008C10.4426 16 10.8008 15.6418 10.8008 15.2V12.8C10.8008 12.3582 10.4426 12 10.0008 12Z" fill="#F7C331"/>
<path id="Vector_4" d="M10.0008 17.6H7.60078C7.15895 17.6 6.80078 17.9581 6.80078 18.4V20.8C6.80078 21.2418 7.15895 21.6 7.60078 21.6H10.0008C10.4426 21.6 10.8008 21.2418 10.8008 20.8V18.4C10.8008 17.9581 10.4426 17.6 10.0008 17.6Z" fill="#E5354B"/>
<path id="Vector_5" d="M16.3992 12H13.9992C13.5574 12 13.1992 12.3582 13.1992 12.8V15.2C13.1992 15.6418 13.5574 16 13.9992 16H16.3992C16.841 16 17.1992 15.6418 17.1992 15.2V12.8C17.1992 12.3582 16.841 12 16.3992 12Z" fill="#84DD4A"/>
<path id="Vector_6" d="M16.3992 17.6H13.9992C13.5574 17.6 13.1992 17.9581 13.1992 18.4V20.8C13.1992 21.2418 13.5574 21.6 13.9992 21.6H16.3992C16.841 21.6 17.1992 21.2418 17.1992 20.8V18.4C17.1992 17.9581 16.841 17.6 16.3992 17.6Z" fill="#348EE8"/>
</g>
</g>
</g>
</g>
</g>
</g>
<defs>
<filter id="filter0_d_0_1" x="-44" y="-24" width="262" height="88" filterUnits="userSpaceOnUse" color-interpolation-filters="sRGB">
<feFlood flood-opacity="0" result="BackgroundImageFix"/>
<feColorMatrix in="SourceAlpha" type="matrix" values="0 0 0 0 0 0 0 0 0 0 0 0 0 0 0 0 0 0 127 0" result="hardAlpha"/>
<feMorphology radius="4" operator="erode" in="SourceAlpha" result="effect1_dropShadow_0_1"/>
<feOffset dy="8"/>
<feGaussianBlur stdDeviation="8"/>
<feComposite in2="hardAlpha" operator="out"/>
<feColorMatrix type="matrix" values="0 0 0 0 0 0 0 0 0 0 0 0 0 0 0 0 0 0 0.18 0"/>
<feBlend mode="normal" in2="BackgroundImageFix" result="effect1_dropShadow_0_1"/>
<feBlend mode="normal" in="SourceGraphic" in2="effect1_dropShadow_0_1" result="shape"/>
</filter>
<linearGradient id="paint0_linear_0_1" x1="87" y1="-20" x2="87" y2="44" gradientUnits="userSpaceOnUse">
<stop stop-color="#D7FAFF"/>
<stop offset="1" stop-color="#0E91A5"/>
</linearGradient>
<clipPath id="clip0_0_1">
<rect width="1440" height="1875" fill="white" transform="translate(-897 -1458)"/>
</clipPath>
<clipPath id="clip1_0_1">
<rect width="24" height="24" fill="white"/>
</clipPath>
</defs>
</svg>
