<svg width="23" height="22" viewBox="0 0 23 22" fill="none" xmlns="http://www.w3.org/2000/svg">
<g clip-path="url(#clip0_2099_7283)">
<path d="M11.8564 10.8909C13.2225 10.8909 14.3362 9.67372 14.3362 8.19275C14.3362 6.72863 13.2284 5.56909 11.8564 5.56909C10.4961 5.56909 9.37658 6.74588 9.37658 8.20412C9.38207 9.6796 10.4957 10.8909 11.8564 10.8909ZM5.24333 11.0167C6.4256 11.0167 7.3958 9.9544 7.3958 8.65139C7.3958 7.37739 6.43736 6.34956 5.24333 6.34956C4.06067 6.34956 3.08459 7.39424 3.09047 8.66276C3.09635 9.96028 4.06067 11.0167 5.24333 11.0167ZM18.4753 11.0167C19.6521 11.0167 20.6223 9.96028 20.6223 8.66276C20.6282 7.39424 19.6521 6.34956 18.4753 6.34956C17.2758 6.34956 16.3169 7.377 16.3169 8.65139C16.3169 9.9544 17.2871 11.0167 18.4753 11.0167ZM11.8564 10.0238C11.0183 10.0238 10.3005 9.22018 10.3005 8.20412C10.3005 7.2053 11.0069 6.4362 11.8568 6.4362C12.7117 6.4362 13.4122 7.19393 13.4122 8.19236C13.4122 9.20881 12.7058 10.0238 11.8564 10.0238ZM5.24333 10.1618C4.54283 10.1618 3.94581 9.48988 3.94581 8.66315C3.94581 7.85406 4.53695 7.20491 5.24333 7.20491C5.96657 7.20491 6.54634 7.8423 6.54634 8.65178C6.54634 9.48988 5.94932 10.1618 5.24333 10.1618ZM18.4753 10.1618C17.7634 10.1618 17.1664 9.48988 17.1664 8.65178C17.1664 7.8423 17.7462 7.2053 18.4753 7.2053C19.1813 7.2053 19.7669 7.85406 19.7669 8.66354C19.7669 9.48988 19.1754 10.1618 18.4753 10.1618ZM2.05128 16.2809H6.55771C6.28213 16.126 6.06967 15.7815 6.11004 15.4314H1.9078C1.79295 15.4314 1.73572 15.3856 1.73572 15.2766C1.73572 13.8528 3.36016 12.5208 5.23745 12.5208C5.96069 12.5208 6.60945 12.6933 7.16609 13.0202C7.35078 12.7862 7.56946 12.5811 7.81485 12.4118C7.07436 11.9238 6.18452 11.6714 5.23745 11.6714C2.83214 11.6714 0.880371 13.4165 0.880371 15.3283C0.880371 15.9653 1.2708 16.2809 2.05128 16.2809ZM21.667 16.2809C22.4419 16.2809 22.8324 15.9653 22.8324 15.3283C22.8324 13.4165 20.8802 11.6714 18.4753 11.6714C17.5282 11.6714 16.6439 11.9238 15.8979 12.4122C16.1562 12.5898 16.3683 12.7909 16.5525 13.0202C17.1033 12.6933 17.7575 12.5208 18.4753 12.5208C20.3526 12.5208 21.977 13.8528 21.977 15.2766C21.977 15.3856 21.9253 15.4314 21.8104 15.4314H17.6082C17.6427 15.7815 17.4361 16.126 17.1605 16.2809H21.667ZM8.25115 16.2809H15.4616C16.4142 16.2809 16.8681 15.9939 16.8681 15.3624C16.8681 13.8583 14.9677 11.6827 11.8564 11.6827C8.73919 11.6827 6.83877 13.8583 6.83877 15.3624C6.83877 15.9939 7.29271 16.2809 8.25115 16.2809ZM7.97557 15.4146C7.82661 15.4146 7.7635 15.3742 7.7635 15.2538C7.7635 14.3119 9.22174 12.5498 11.8564 12.5498C14.4855 12.5498 15.9438 14.3119 15.9438 15.2535C15.9438 15.3742 15.8861 15.4142 15.7372 15.4142L7.97557 15.4146Z" fill="white"/>
</g>
<defs>
<clipPath id="clip0_2099_7283">
<rect width="21.952" height="21.952" fill="white" transform="translate(0.880371 0.0480957)"/>
</clipPath>
</defs>
</svg>
